<svg xmlns="http://www.w3.org/2000/svg" viewBox="0 0 700 320" role="img" aria-label="Every platform governs inward: a master record sits above and outside every platform's own walls">
<style>
text{font-family:"Aptos","Segoe UI",Arial,sans-serif}
.svg-cap{font-size:8.5px;letter-spacing:.16em;fill:#8a887f}
.svg-lbl{font-size:10px;letter-spacing:.14em;fill:#1b1b19}
.svg-sub{font-size:8.5px;fill:#8a887f}
.svg-ttl{font-size:11px;letter-spacing:.16em;fill:#1b1b19}
</style>
<defs><marker id="d9-arrow" viewBox="0 0 10 10" refX="9" refY="5" markerWidth="7" markerHeight="7" orient="auto"><path d="M1 2 L8 5 L1 8" fill="none" stroke="#1b1b19" stroke-width="1"/></marker></defs>

<text class="svg-ttl" x="350" y="16" text-anchor="middle">EVERY PLATFORM GOVERNS INWARD</text>

<path d="M260,32 a90,12 0 0 1 180,0 v30 a90,12 0 0 1 -180,0 z" fill="none" stroke="#1b1b19" stroke-width=".7"/>
<path d="M260,32 a90,12 0 0 0 180,0" fill="none" stroke="#1b1b19" stroke-width=".7"/>
<text class="svg-lbl" x="350" y="56" text-anchor="middle">MASTER RECORD</text>
<text class="svg-sub" x="350" y="70" text-anchor="middle">independent of platforms</text>

<line x1="290" y1="82" x2="99" y2="128" stroke="#1b1b19" stroke-width=".7" marker-end="url(#d9-arrow)"/>
<line x1="325" y1="82" x2="266" y2="128" stroke="#1b1b19" stroke-width=".7" marker-end="url(#d9-arrow)"/>
<line x1="375" y1="82" x2="433" y2="128" stroke="#1b1b19" stroke-width=".7" marker-end="url(#d9-arrow)"/>
<line x1="410" y1="82" x2="600" y2="128" stroke="#1b1b19" stroke-width=".7" marker-end="url(#d9-arrow)"/>

<rect x="20" y="112" width="157" height="150" fill="none" stroke="#c9c7bf" stroke-width=".7" stroke-dasharray="2,3"/>
<rect x="35" y="128" width="127" height="40" fill="none" stroke="#1b1b19" stroke-width=".7"/>
<text class="svg-sub" x="99" y="152" text-anchor="middle">Platform A</text>
<rect x="35" y="212" width="127" height="32" fill="none" stroke="#1b1b19" stroke-width=".7"/>
<text class="svg-sub" x="99" y="232" text-anchor="middle">agents</text>
<line x1="99" y1="212" x2="99" y2="170" stroke="#1b1b19" stroke-width=".5"/>

<rect x="187" y="112" width="157" height="150" fill="none" stroke="#c9c7bf" stroke-width=".7" stroke-dasharray="2,3"/>
<rect x="202" y="128" width="127" height="40" fill="none" stroke="#1b1b19" stroke-width=".7"/>
<text class="svg-sub" x="266" y="152" text-anchor="middle">Platform B</text>
<rect x="202" y="212" width="127" height="32" fill="none" stroke="#1b1b19" stroke-width=".7"/>
<text class="svg-sub" x="266" y="232" text-anchor="middle">agents</text>
<line x1="266" y1="212" x2="266" y2="170" stroke="#1b1b19" stroke-width=".5"/>

<rect x="354" y="112" width="157" height="150" fill="none" stroke="#c9c7bf" stroke-width=".7" stroke-dasharray="2,3"/>
<rect x="369" y="128" width="127" height="40" fill="none" stroke="#1b1b19" stroke-width=".7"/>
<text class="svg-sub" x="433" y="152" text-anchor="middle">Built in house</text>
<rect x="369" y="212" width="127" height="32" fill="none" stroke="#1b1b19" stroke-width=".7"/>
<text class="svg-sub" x="433" y="232" text-anchor="middle">agents</text>
<line x1="433" y1="212" x2="433" y2="170" stroke="#1b1b19" stroke-width=".5"/>

<rect x="521" y="112" width="157" height="150" fill="none" stroke="#c9c7bf" stroke-width=".7" stroke-dasharray="2,3"/>
<rect x="536" y="128" width="127" height="40" fill="none" stroke="#1b1b19" stroke-width=".7"/>
<text class="svg-sub" x="600" y="146" text-anchor="middle">Spreadsheet and</text>
<text class="svg-sub" x="600" y="158" text-anchor="middle">simple automation</text>
<rect x="536" y="212" width="127" height="32" fill="none" stroke="#1b1b19" stroke-width=".7"/>
<text class="svg-sub" x="600" y="232" text-anchor="middle">agents</text>
<line x1="600" y1="212" x2="600" y2="170" stroke="#1b1b19" stroke-width=".5"/>

<line x1="99" y1="244" x2="290" y2="90" stroke="#8a887f" stroke-width=".7" stroke-dasharray="2,3" marker-end="url(#d9-arrow)"/>
<line x1="266" y1="244" x2="325" y2="90" stroke="#8a887f" stroke-width=".7" stroke-dasharray="2,3" marker-end="url(#d9-arrow)"/>
<line x1="433" y1="244" x2="375" y2="90" stroke="#8a887f" stroke-width=".7" stroke-dasharray="2,3" marker-end="url(#d9-arrow)"/>
<line x1="600" y1="244" x2="410" y2="90" stroke="#8a887f" stroke-width=".7" stroke-dasharray="2,3" marker-end="url(#d9-arrow)"/>

<text class="svg-cap" x="350" y="292" text-anchor="middle">EACH PLATFORM IS DEEP, CREDIBLE AND LIMITED BY ITS OWN WALLS. YOUR RESPONSIBILITY IS NOT</text>
</svg>
